<svg width="168" height="20" viewBox="0 0 168 20" fill="none" xmlns="http://www.w3.org/2000/svg">
<path d="M9.712 3.27L10.96 4.492V7.924L9.712 9.146H3.81V3.27H9.712ZM9.348 12.162L8.75 11.694L8.802 11.616L9.4 11.876H11.116L13.95 9.068V3.348L11.116 0.539999H0.82V19H3.81V11.876H5.11L12.078 19.52L14.262 17.544L9.348 12.162ZM25.8308 8.002H18.6808V0.539999H15.6908V19H18.6808V10.732H25.8308V19H28.8208V0.539999H25.8308V8.002ZM34.0346 0.539999L30.7586 3.53V16.01L34.0346 19H41.3926L44.6686 16.01V3.53L41.3926 0.539999H34.0346ZM41.6786 4.648V14.892L40.1966 16.27H35.2306L33.7486 14.918V4.648L35.2306 3.27H40.1966L41.6786 4.648ZM46.6257 0.539999V19H56.7657L59.7817 15.958V3.582L56.7657 0.539999H46.6257ZM56.7917 4.622V14.918L55.4397 16.27H49.6157V3.27H55.4397L56.7917 4.622ZM61.725 19H73.503V16.27H64.715V10.732H72.411V8.002H64.715V3.27H73.503V0.539999H61.725V19ZM82.8041 3.27L85.6641 4.18L86.4701 1.606L83.2981 0.539999H76.8761L73.8861 3.53V6.806L74.7181 8.548L83.2461 12.812L83.4801 13.202V14.944L82.1541 16.27H77.6301L74.7701 15.282L73.8861 17.908L77.1621 19H83.4801L86.4701 16.01V12.396L85.5081 10.602L77.0321 6.364L76.8761 6V4.596L78.2021 3.27H82.8041ZM101.622 19V18.22H98.086V1.58H101.622V0.799999H93.77V1.58H97.306V18.22H93.77V19H101.622ZM111.568 1.58L113.518 2.204L113.752 1.476L111.75 0.799999H104.158L101.766 3.192V6.182L102.364 7.404L112.686 12.344L113.154 13.228V16.296L111.204 18.22H104.132L102.182 17.57L101.948 18.298L104.054 19H111.516L113.934 16.608V13.02L113.258 11.746L102.988 6.858L102.546 5.974V3.504L104.47 1.58H111.568ZM115.62 19H126.488V18.22H116.4V0.799999H115.62V19ZM128.309 13.02H136.317L138.319 19.13L139.047 18.87L133.093 0.799999H131.533L125.579 18.87L126.307 19.13L128.309 13.02ZM128.569 12.24L132.079 1.58H132.547L136.057 12.24H128.569ZM151.257 19H152.427V0.799999H151.647V18.116L141.377 0.799999H140.207V19H140.987V1.684L151.257 19ZM155.154 0.799999V19H164.956L167.374 16.556V3.244L164.956 0.799999H155.154ZM166.594 3.582V16.218L164.644 18.22H155.934V1.58H164.644L166.594 3.582Z" fill="black"/>
</svg>
