<svg width="167" height="59" viewBox="0 0 167 59" fill="none" xmlns="http://www.w3.org/2000/svg">
<path d="M0.495 2.05V57H11.642V39.573H21.9255C32.2875 39.573 41.001 33.0575 41.001 20.8115C41.001 8.5655 32.2875 2.05 21.9255 2.05H0.495ZM21.6115 12.726C25.8505 12.726 30.011 15.1595 30.011 20.8115C30.011 26.4635 25.8505 28.897 21.6115 28.897H11.642V12.726H21.6115ZM73.0456 36.747C79.6396 34.3135 84.2711 28.5045 84.2711 20.0265C84.2711 8.7225 76.0286 2.05 65.6666 2.05H43.7651V57H54.9121V38.003H62.2126L72.4176 57H84.7421L73.0456 36.747ZM65.9021 12.4905C70.1411 12.4905 73.2811 15.3165 73.2811 20.0265C73.2811 24.7365 70.1411 27.5625 65.9021 27.5625H54.9121V12.4905H65.9021ZM109.486 12.726H124.951V2.05H82.8746V12.726H98.3391V57H109.486V12.726ZM123.876 40.5935C123.876 52.604 134.474 58.1775 145.464 58.1775C156.297 58.0205 166.58 52.447 166.58 41.143C166.58 29.368 157.082 26.3065 148.211 24.187C141.617 22.617 136.593 21.7535 136.593 17.436C136.593 13.197 140.44 11.0775 145.15 11.0775C149.86 11.0775 154.099 12.8045 154.413 17.5145H165.246C165.246 5.7395 155.433 0.872497 145.15 0.872497C134.238 0.872497 125.446 5.975 125.446 17.6715C125.446 30.467 137.692 31.9585 146.955 34.235C152.058 35.491 155.041 37.1395 155.041 41.3C155.041 46.324 150.252 48.051 145.385 48.051C140.047 48.051 134.945 45.6175 134.709 40.5935H123.876Z" fill="black"/>
</svg>
