<svg width="168" height="60" viewBox="0 0 168 60" fill="none" xmlns="http://www.w3.org/2000/svg">
<path d="M0.652 58V1.794H20.748C23.6263 1.794 26.2692 2.23883 28.6765 3.1285C31.1362 4.01816 33.2557 5.27416 35.035 6.8965C36.8143 8.4665 38.2012 10.3767 39.1955 12.627C40.1898 14.8773 40.687 17.3632 40.687 20.0845C40.687 22.8058 40.1898 25.2917 39.1955 27.542C38.2012 29.7923 36.8143 31.7287 35.035 33.351C33.2557 34.921 31.1362 36.1508 28.6765 37.0405C26.2692 37.9302 23.6263 38.375 20.748 38.375H12.898V58H0.652ZM21.1405 26.757C23.7048 26.757 25.615 26.129 26.871 24.873C28.127 23.617 28.755 22.0208 28.755 20.0845C28.755 18.1482 28.127 16.552 26.871 15.296C25.615 14.04 23.7048 13.412 21.1405 13.412H12.898V26.757H21.1405ZM43.1555 1.794H64.3505C67.3858 1.794 70.1071 2.265 72.5145 3.207C74.9218 4.09666 76.9366 5.35266 78.559 6.975C80.2336 8.59733 81.4896 10.5337 82.327 12.784C83.2166 14.982 83.6615 17.3893 83.6615 20.006C83.6615 21.8377 83.3475 23.5385 82.7195 25.1085C82.1438 26.6785 81.3326 28.1438 80.286 29.5045C79.2916 30.8128 78.1141 31.9903 76.7535 33.037C75.3928 34.0313 73.9275 34.8687 72.3575 35.549V36.2555L87.037 57.215V58H73.064L58.8555 37.747H55.4015V58H43.1555V1.794ZM64.3505 26.443C66.5485 26.443 68.2755 25.815 69.5315 24.559C70.7875 23.2507 71.4155 21.6545 71.4155 19.7705C71.4155 17.8865 70.8136 16.3165 69.61 15.0605C68.4586 13.7522 66.7055 13.098 64.3505 13.098H55.4015V26.443H64.3505ZM100.274 58V13.412H84.574V1.794H128.22V13.412H112.52V58H100.274ZM147.668 59.256C142.435 59.256 137.908 57.8692 134.088 55.0955C130.32 52.2695 127.651 48.2398 126.081 43.0065L137.62 38.4535C138.301 41.1225 139.426 43.3205 140.996 45.0475C142.566 46.7745 144.79 47.638 147.668 47.638C148.61 47.638 149.5 47.5333 150.337 47.324C151.227 47.1147 151.986 46.8007 152.614 46.382C153.294 45.911 153.844 45.3353 154.262 44.655C154.681 43.9747 154.89 43.1897 154.89 42.3C154.89 41.4103 154.707 40.5992 154.341 39.8665C154.027 39.0815 153.477 38.375 152.692 37.747C151.907 37.0667 150.861 36.4125 149.552 35.7845C148.244 35.1042 146.596 34.3977 144.607 33.665L141.153 32.409C139.688 31.8857 138.17 31.1792 136.6 30.2895C135.082 29.3475 133.695 28.2223 132.439 26.914C131.183 25.6057 130.163 24.1142 129.378 22.4395C128.593 20.7125 128.2 18.8023 128.2 16.709C128.2 14.4587 128.645 12.3392 129.535 10.3505C130.425 8.36183 131.681 6.661 133.303 5.248C134.925 3.78266 136.888 2.63133 139.19 1.794C141.493 0.956663 144.031 0.537996 146.805 0.537996C149.736 0.537996 152.248 0.930497 154.341 1.7155C156.434 2.44817 158.214 3.41633 159.679 4.62C161.144 5.77133 162.296 7.07966 163.133 8.545C164.023 10.0103 164.703 11.4233 165.174 12.784L154.576 17.2585C154.001 15.5838 153.085 14.2493 151.829 13.255C150.573 12.2083 148.951 11.685 146.962 11.685C144.869 11.685 143.194 12.1298 141.938 13.0195C140.734 13.8568 140.132 14.9558 140.132 16.3165C140.132 17.7295 140.76 18.9855 142.016 20.0845C143.272 21.1835 145.497 22.2825 148.689 23.3815L152.143 24.559C156.905 26.1813 160.595 28.3532 163.211 31.0745C165.828 33.7958 167.136 37.4592 167.136 42.0645C167.136 44.9952 166.535 47.5333 165.331 49.679C164.18 51.8247 162.662 53.604 160.778 55.017C158.946 56.43 156.853 57.4767 154.498 58.157C152.195 58.8897 149.919 59.256 147.668 59.256Z" fill="black"/>
</svg>
