<svg width="233" height="27" viewBox="0 0 233 27" fill="none" xmlns="http://www.w3.org/2000/svg">
<path d="M0.52 0.939999H9.655C10.915 0.939999 12.0583 1.13833 13.085 1.535C14.1117 1.93167 14.9867 2.48 15.71 3.18C16.4567 3.88 17.0283 4.72 17.425 5.7C17.8217 6.65667 18.02 7.70667 18.02 8.85C18.02 9.69 17.88 10.4833 17.6 11.23C17.32 11.9533 16.935 12.6183 16.445 13.225C15.955 13.8083 15.3833 14.3333 14.73 14.8C14.0767 15.2433 13.3883 15.5933 12.665 15.85L12.63 16.095L19.35 25.72V26H13.925L7.45 16.585H5.245V26H0.52V0.939999ZM9.62 12.245C10.6933 12.245 11.5683 11.9183 12.245 11.265C12.945 10.6117 13.295 9.78333 13.295 8.78C13.295 8.33667 13.2133 7.905 13.05 7.485C12.91 7.065 12.6883 6.69166 12.385 6.365C12.0817 6.03833 11.6967 5.78167 11.23 5.595C10.7867 5.385 10.2733 5.28 9.69 5.28H5.245V12.245H9.62ZM20.1241 0.939999H24.8491V10.95H35.3841V0.939999H40.1091V26H35.3841V15.43H24.8491V26H20.1241V0.939999ZM54.5668 26.56C52.7002 26.56 50.9618 26.2217 49.3518 25.545C47.7652 24.8683 46.3885 23.9467 45.2218 22.78C44.0552 21.59 43.1335 20.2017 42.4568 18.615C41.8035 17.005 41.4768 15.29 41.4768 13.47C41.4768 11.65 41.8035 9.94667 42.4568 8.36C43.1335 6.75 44.0552 5.36167 45.2218 4.195C46.3885 3.005 47.7652 2.07167 49.3518 1.395C50.9618 0.718332 52.7002 0.379998 54.5668 0.379998C56.4335 0.379998 58.1602 0.718332 59.7468 1.395C61.3568 2.07167 62.7452 3.005 63.9118 4.195C65.0785 5.36167 65.9885 6.75 66.6418 8.36C67.3185 9.94667 67.6568 11.65 67.6568 13.47C67.6568 15.29 67.3185 17.005 66.6418 18.615C65.9885 20.2017 65.0785 21.59 63.9118 22.78C62.7452 23.9467 61.3568 24.8683 59.7468 25.545C58.1602 26.2217 56.4335 26.56 54.5668 26.56ZM54.5668 22.08C55.7335 22.08 56.8185 21.87 57.8218 21.45C58.8485 21.03 59.7352 20.4467 60.4818 19.7C61.2518 18.9533 61.8468 18.055 62.2668 17.005C62.7102 15.9317 62.9318 14.7533 62.9318 13.47C62.9318 12.1867 62.7102 11.02 62.2668 9.97C61.8468 8.89667 61.2518 7.98667 60.4818 7.24C59.7352 6.49333 58.8485 5.91 57.8218 5.49C56.8185 5.07 55.7335 4.86 54.5668 4.86C53.4002 4.86 52.3035 5.07 51.2768 5.49C50.2735 5.91 49.3868 6.49333 48.6168 7.24C47.8702 7.98667 47.2752 8.89667 46.8318 9.97C46.4118 11.02 46.2018 12.1867 46.2018 13.47C46.2018 14.7533 46.4118 15.9317 46.8318 17.005C47.2752 18.055 47.8702 18.9533 48.6168 19.7C49.3868 20.4467 50.2735 21.03 51.2768 21.45C52.3035 21.87 53.4002 22.08 54.5668 22.08ZM69.3811 0.939999H77.8511C79.8345 0.939999 81.6195 1.24333 83.2061 1.85C84.7928 2.45667 86.1461 3.32 87.2661 4.44C88.3861 5.53667 89.2378 6.855 89.8211 8.395C90.4278 9.935 90.7311 11.6267 90.7311 13.47C90.7311 15.3367 90.4278 17.04 89.8211 18.58C89.2378 20.12 88.3861 21.4383 87.2661 22.535C86.1461 23.6317 84.7928 24.4833 83.2061 25.09C81.6195 25.6967 79.8345 26 77.8511 26H69.3811V0.939999ZM77.6411 21.52C79.0178 21.52 80.2311 21.3333 81.2811 20.96C82.3311 20.5633 83.2061 20.015 83.9061 19.315C84.6061 18.615 85.1311 17.775 85.4811 16.795C85.8311 15.7917 86.0061 14.6833 86.0061 13.47C86.0061 12.2567 85.8311 11.16 85.4811 10.18C85.1311 9.17667 84.6061 8.325 83.9061 7.625C83.2061 6.925 82.3311 6.38833 81.2811 6.015C80.2311 5.61833 79.0178 5.42 77.6411 5.42H74.1061V21.52H77.6411ZM97.1624 5.42V11.23H107.207V15.71H97.1624V21.52H108.327V26H92.4374V0.939999H108.327V5.42H97.1624ZM118.237 26.56C117.163 26.56 116.137 26.4083 115.157 26.105C114.177 25.8017 113.278 25.3467 112.462 24.74C111.645 24.1333 110.933 23.3983 110.327 22.535C109.72 21.6483 109.242 20.6217 108.892 19.455L113.337 17.705C113.663 18.965 114.235 20.015 115.052 20.855C115.868 21.6717 116.942 22.08 118.272 22.08C118.762 22.08 119.228 22.0217 119.672 21.905C120.138 21.765 120.547 21.5783 120.897 21.345C121.27 21.0883 121.562 20.7733 121.772 20.4C121.982 20.0267 122.087 19.595 122.087 19.105C122.087 18.6383 122.005 18.2183 121.842 17.845C121.678 17.4717 121.398 17.1217 121.002 16.795C120.628 16.4683 120.127 16.1533 119.497 15.85C118.89 15.5467 118.132 15.2317 117.222 14.905L115.682 14.345C115.005 14.1117 114.317 13.7967 113.617 13.4C112.94 13.0033 112.322 12.525 111.762 11.965C111.202 11.405 110.735 10.7517 110.362 10.005C110.012 9.235 109.837 8.37167 109.837 7.415C109.837 6.435 110.023 5.525 110.397 4.685C110.793 3.82167 111.342 3.075 112.042 2.445C112.765 1.79167 113.617 1.29 114.597 0.939999C115.6 0.566665 116.708 0.379998 117.922 0.379998C119.182 0.379998 120.267 0.554999 121.177 0.905C122.11 1.23167 122.892 1.66333 123.522 2.2C124.175 2.71333 124.7 3.285 125.097 3.915C125.493 4.545 125.785 5.14 125.972 5.7L121.807 7.45C121.573 6.75 121.142 6.12 120.512 5.56C119.905 5 119.065 4.72 117.992 4.72C116.965 4.72 116.113 4.965 115.437 5.455C114.76 5.92167 114.422 6.54 114.422 7.31C114.422 8.05667 114.748 8.69833 115.402 9.235C116.055 9.74833 117.093 10.25 118.517 10.74L120.092 11.265C121.095 11.615 122.005 12.0233 122.822 12.49C123.662 12.9333 124.373 13.47 124.957 14.1C125.563 14.73 126.018 15.4533 126.322 16.27C126.648 17.0633 126.812 17.985 126.812 19.035C126.812 20.3417 126.543 21.4733 126.007 22.43C125.493 23.3633 124.828 24.1333 124.012 24.74C123.195 25.3467 122.273 25.8017 121.247 26.105C120.22 26.4083 119.217 26.56 118.237 26.56ZM134.544 0.939999H135.804V26H134.544V0.939999ZM145.821 26.56C144.958 26.56 144.083 26.4083 143.196 26.105C142.333 25.8017 141.528 25.37 140.781 24.81C140.034 24.2267 139.369 23.5267 138.786 22.71C138.226 21.87 137.806 20.925 137.526 19.875L138.681 19.385C138.914 20.295 139.253 21.1233 139.696 21.87C140.163 22.5933 140.711 23.2233 141.341 23.76C141.971 24.2733 142.671 24.67 143.441 24.95C144.211 25.23 145.039 25.37 145.926 25.37C146.813 25.37 147.641 25.2417 148.411 24.985C149.204 24.705 149.893 24.32 150.476 23.83C151.059 23.34 151.514 22.745 151.841 22.045C152.191 21.3217 152.366 20.5167 152.366 19.63C152.366 18.1367 151.806 16.9117 150.686 15.955C149.566 14.9983 148.084 14.1933 146.241 13.54L144.666 12.98C143.873 12.7 143.103 12.385 142.356 12.035C141.633 11.6617 140.991 11.23 140.431 10.74C139.871 10.25 139.428 9.67833 139.101 9.025C138.774 8.34833 138.611 7.56667 138.611 6.68C138.611 5.84 138.786 5.035 139.136 4.265C139.486 3.495 139.976 2.83 140.606 2.27C141.236 1.68667 141.971 1.23167 142.811 0.905C143.674 0.554999 144.619 0.379998 145.646 0.379998C146.766 0.379998 147.734 0.543331 148.551 0.869998C149.391 1.19666 150.103 1.61666 150.686 2.13C151.269 2.62 151.736 3.15667 152.086 3.74C152.459 4.3 152.728 4.825 152.891 5.315L151.701 5.84C151.561 5.35 151.328 4.86 151.001 4.37C150.698 3.85667 150.301 3.39 149.811 2.97C149.321 2.55 148.726 2.21166 148.026 1.955C147.349 1.69833 146.556 1.57 145.646 1.57C144.853 1.57 144.106 1.69833 143.406 1.955C142.706 2.18833 142.088 2.53833 141.551 3.005C141.038 3.44833 140.629 3.985 140.326 4.615C140.023 5.245 139.871 5.93333 139.871 6.68C139.871 7.38 140.011 7.99833 140.291 8.535C140.571 9.04833 140.956 9.515 141.446 9.935C141.936 10.355 142.496 10.7283 143.126 11.055C143.779 11.3817 144.479 11.6733 145.226 11.93L146.871 12.525C147.804 12.875 148.679 13.26 149.496 13.68C150.313 14.0767 151.024 14.555 151.631 15.115C152.261 15.6517 152.751 16.27 153.101 16.97C153.451 17.67 153.626 18.4867 153.626 19.42C153.626 20.6567 153.393 21.7183 152.926 22.605C152.483 23.4917 151.888 24.2383 151.141 24.845C150.418 25.4283 149.589 25.86 148.656 26.14C147.723 26.42 146.778 26.56 145.821 26.56ZM155.945 0.939999H157.205V24.81H169.035V26H155.945V0.939999ZM178.289 0.939999H179.829L189.769 26H188.439L185.394 18.3H172.724L169.679 26H168.349L178.289 0.939999ZM184.904 17.11L179.129 2.48H178.989L173.214 17.11H184.904ZM190.983 0.939999H192.838L207.923 23.76H208.063L207.923 18.93V0.939999H209.183V26H207.923L192.243 2.27H192.103L192.243 7.1V26H190.983V0.939999ZM212.809 0.939999H219.704C221.687 0.939999 223.449 1.24333 224.989 1.85C226.552 2.45667 227.859 3.30833 228.909 4.405C229.982 5.50166 230.799 6.82 231.359 8.36C231.919 9.9 232.199 11.6033 232.199 13.47C232.199 15.3367 231.919 17.04 231.359 18.58C230.799 20.12 229.982 21.4383 228.909 22.535C227.859 23.6317 226.552 24.4833 224.989 25.09C223.449 25.6967 221.687 26 219.704 26H212.809V0.939999ZM219.704 24.81C221.384 24.81 222.912 24.5533 224.289 24.04C225.689 23.5267 226.879 22.7917 227.859 21.835C228.839 20.855 229.597 19.665 230.134 18.265C230.67 16.865 230.939 15.2667 230.939 13.47C230.939 11.6733 230.67 10.075 230.134 8.675C229.597 7.275 228.839 6.09667 227.859 5.14C226.879 4.16 225.689 3.41333 224.289 2.9C222.912 2.38667 221.384 2.13 219.704 2.13H214.069V24.81H219.704Z" fill="black"/>
</svg>
