<svg width="240" height="27" viewBox="0 0 240 27" fill="none" xmlns="http://www.w3.org/2000/svg">
<path d="M13.505 16.97C16.445 15.885 18.51 13.295 18.51 9.515C18.51 4.475 14.835 1.5 10.215 1.5H0.45V26H5.42V17.53H8.675L13.225 26H18.72L13.505 16.97ZM10.32 6.155C12.21 6.155 13.61 7.415 13.61 9.515C13.61 11.615 12.21 12.875 10.32 12.875H5.42V6.155H10.32ZM34.1974 26H39.1674V1.5H34.1974V11.02H24.7124V1.5H19.7424V26H24.7124V15.78H34.1974V26ZM53.0033 0.974999C45.9683 0.974999 40.5783 5.98 40.5783 13.75C40.5783 21.52 45.9683 26.525 53.0033 26.525C60.0383 26.525 65.4283 21.52 65.4283 13.75C65.4283 5.98 60.0383 0.974999 53.0033 0.974999ZM53.0033 21.835C48.3133 21.835 45.5483 18.51 45.5483 13.75C45.5483 8.99 48.3133 5.665 53.0033 5.665C57.6933 5.665 60.4583 8.99 60.4583 13.75C60.4583 18.51 57.6933 21.835 53.0033 21.835ZM66.667 1.5V26H75.627C82.382 26 87.527 21.45 87.527 13.75C87.527 6.05 82.382 1.5 75.627 1.5H66.667ZM75.697 6.26C79.757 6.26 82.732 8.955 82.732 13.75C82.732 18.545 79.757 21.24 75.697 21.24H71.637V6.26H75.697ZM105.348 6.26V1.5H88.933V26H105.348V21.24H93.903V15.745H103.878V11.055H93.903V6.26H105.348ZM105.496 18.685C105.496 24.04 110.221 26.525 115.121 26.525C119.951 26.455 124.536 23.97 124.536 18.93C124.536 13.68 120.301 12.315 116.346 11.37C113.406 10.67 111.166 10.285 111.166 8.36C111.166 6.47 112.881 5.525 114.981 5.525C117.081 5.525 118.971 6.295 119.111 8.395H123.941C123.941 3.145 119.566 0.974999 114.981 0.974999C110.116 0.974999 106.196 3.25 106.196 8.465C106.196 14.17 111.656 14.835 115.786 15.85C118.061 16.41 119.391 17.145 119.391 19C119.391 21.24 117.256 22.01 115.086 22.01C112.706 22.01 110.431 20.925 110.326 18.685H105.496ZM134.626 1.5H133.156V26H134.626V1.5ZM137.517 19.35C137.517 23.725 141.542 26.42 146.337 26.42C151.412 26.42 154.422 22.885 154.492 19.63C154.562 14.66 150.257 13.12 146.477 12.28C143.152 11.51 139.967 10.81 140.037 7.17C140.072 4.125 142.872 2.375 146.302 2.375C149.452 2.375 152.112 4.23 152.287 7.59H153.722C153.652 4.02 150.852 1.08 146.337 1.08C142.242 1.08 138.637 3.215 138.567 7.17C138.462 11.545 141.997 12.735 145.707 13.575C149.032 14.275 153.092 15.5 153.022 19.63C152.952 22.36 150.327 25.125 146.302 25.125C142.347 25.125 139.197 23.095 138.987 19.35H137.517ZM158.89 24.67V1.5H157.42V26H171.595V24.67H158.89ZM172.523 26H174.168L176.793 19.77H190.793L193.453 26H195.098L184.633 1.5H182.988L172.523 26ZM183.793 3.25L190.233 18.44H177.353L183.793 3.25ZM215.266 26V1.5H213.796V23.585L198.466 1.5H196.996V26H198.466V3.81L213.796 26H215.266ZM227.658 26C234.378 26 239.523 21.415 239.558 13.75C239.523 5.945 234.378 1.5 227.658 1.5H219.433V26H227.658ZM220.903 2.83H227.658C231.683 2.83 238.053 5.245 238.088 13.75C238.053 22.29 231.683 24.67 227.658 24.67H220.903V2.83Z" fill="black"/>
</svg>
