<svg width="297" height="20" viewBox="0 0 297 20" fill="none" xmlns="http://www.w3.org/2000/svg">
<path d="M0.867 13.6705C0.867 17.572 4.3095 19.3825 7.8795 19.3825C11.3985 19.3315 14.739 17.521 14.739 13.849C14.739 10.024 11.6535 9.0295 8.772 8.341C6.63 7.831 4.998 7.5505 4.998 6.148C4.998 4.771 6.2475 4.0825 7.7775 4.0825C9.3075 4.0825 10.6845 4.6435 10.7865 6.1735H14.3055C14.3055 2.3485 11.118 0.767499 7.7775 0.767499C4.233 0.767499 1.377 2.425 1.377 6.2245C1.377 10.381 5.355 10.8655 8.364 11.605C10.0215 12.013 10.9905 12.5485 10.9905 13.9C10.9905 15.532 9.435 16.093 7.854 16.093C6.12 16.093 4.4625 15.3025 4.386 13.6705H0.867ZM29.9348 1.15H25.7528L21.8768 9.208L18.0008 1.15H13.8188L20.0663 12.5485V19H23.6873V12.5485L29.9348 1.15ZM45.0521 19V1.15H41.4311V12.7525L33.9341 1.15H30.3131V19H33.9341V7.321L41.4311 19H45.0521ZM54.6343 4.618H59.6578V1.15H45.9898V4.618H51.0133V19H54.6343V4.618ZM71.1408 19H74.7618V1.15H71.1408V8.086H64.2303V1.15H60.6093V19H64.2303V11.554H71.1408V19ZM89.0243 4.618V1.15H77.0648V19H89.0243V15.532H80.6858V11.5285H87.9533V8.1115H80.6858V4.618H89.0243ZM89.5144 13.6705C89.5144 17.572 92.9569 19.3825 96.5269 19.3825C100.046 19.3315 103.386 17.521 103.386 13.849C103.386 10.024 100.301 9.0295 97.4194 8.341C95.2774 7.831 93.6454 7.5505 93.6454 6.148C93.6454 4.771 94.8949 4.0825 96.4249 4.0825C97.9549 4.0825 99.3319 4.6435 99.4339 6.1735H102.953C102.953 2.3485 99.7654 0.767499 96.4249 0.767499C92.8804 0.767499 90.0244 2.425 90.0244 6.2245C90.0244 10.381 94.0024 10.8655 97.0114 11.605C98.6689 12.013 99.6379 12.5485 99.6379 13.9C99.6379 15.532 98.0824 16.093 96.5014 16.093C94.7674 16.093 93.1099 15.3025 93.0334 13.6705H89.5144ZM108.392 1.15H104.771V19H108.392V1.15ZM122.193 3.8275V1.15H110.03V4.618H117.272L109.8 16.3225V19H122.193V15.532H114.671L122.193 3.8275ZM135.547 4.618V1.15H123.587V19H135.547V15.532H127.208V11.5285H134.476V8.1115H127.208V4.618H135.547ZM145.676 1.15H142.055V19H145.676V1.15ZM162.716 19V1.15H159.095V12.7525L151.598 1.15H147.977V19H151.598V7.321L159.095 19H162.716ZM176.174 4.618V1.15H165.005V19H168.626V11.9365H175.103V8.494H168.626V4.618H176.174ZM185.362 0.767499C180.237 0.767499 176.31 4.414 176.31 10.075C176.31 15.736 180.237 19.3825 185.362 19.3825C190.488 19.3825 194.415 15.736 194.415 10.075C194.415 4.414 190.488 0.767499 185.362 0.767499ZM185.362 15.9655C181.945 15.9655 179.931 13.543 179.931 10.075C179.931 6.607 181.945 4.1845 185.362 4.1845C188.779 4.1845 190.794 6.607 190.794 10.075C190.794 13.543 188.779 15.9655 185.362 15.9655ZM205.211 12.421C207.353 11.6305 208.858 9.7435 208.858 6.9895C208.858 3.3175 206.18 1.15 202.814 1.15H195.7V19H199.321V12.829H201.692L205.007 19H209.011L205.211 12.421ZM202.891 4.5415C204.268 4.5415 205.288 5.4595 205.288 6.9895C205.288 8.5195 204.268 9.4375 202.891 9.4375H199.321V4.5415H202.891ZM218.833 10.1005L213.759 1.15H210.138V19H213.759V8.137L217.635 14.971H220.032L223.908 8.137V19H227.529V1.15H223.908L218.833 10.1005ZM238.628 1.15H235.262L228.173 19H232.024L233.273 15.7105H240.617L241.867 19H245.717L238.628 1.15ZM236.945 5.536L239.393 12.4975H234.472L236.945 5.536ZM251.363 4.618H256.386V1.15H242.718V4.618H247.742V19H251.363V4.618ZM260.959 1.15H257.338V19H260.959V1.15ZM271.42 0.767499C266.294 0.767499 262.367 4.414 262.367 10.075C262.367 15.736 266.294 19.3825 271.42 19.3825C276.545 19.3825 280.472 15.736 280.472 10.075C280.472 4.414 276.545 0.767499 271.42 0.767499ZM271.42 15.9655C268.003 15.9655 265.988 13.543 265.988 10.075C265.988 6.607 268.003 4.1845 271.42 4.1845C274.837 4.1845 276.851 6.607 276.851 10.075C276.851 13.543 274.837 15.9655 271.42 15.9655ZM296.496 19V1.15H292.875V12.7525L285.378 1.15H281.757V19H285.378V7.321L292.875 19H296.496Z" fill="black"/>
</svg>
