<svg width="250" height="264" viewBox="0 0 250 264" fill="none" xmlns="http://www.w3.org/2000/svg">
<circle cx="125" cy="139" r="121" stroke="black" stroke-width="8"/>
<path d="M79 204V187.6H118V110.4H84V94H136V187.6H173V204H79ZM125 74.2C120.6 74.2 117.133 73.0667 114.6 70.8C112.067 68.5333 110.8 65.4667 110.8 61.6C110.8 57.6 112.067 54.4667 114.6 52.2C117.133 49.8 120.6 48.6 125 48.6C129.4 48.6 132.867 49.8 135.4 52.2C137.933 54.4667 139.2 57.6 139.2 61.6C139.2 65.4667 137.933 68.5333 135.4 70.8C132.867 73.0667 129.4 74.2 125 74.2Z" fill="black"/>
</svg>
